<svg width="34" height="36" viewBox="0 0 34 36" fill="none" xmlns="http://www.w3.org/2000/svg">
<g id="Arrow - Swap" opacity="0.5">
<path id="Icon" fill-rule="evenodd" clip-rule="evenodd" d="M4.78796 24.906C4.49934 24.6089 4.02452 24.6021 3.72741 24.8907C3.4303 25.1793 3.42342 25.6541 3.71204 25.9512L9.37871 31.7846C9.51993 31.9299 9.71399 32.012 9.91667 32.012C10.1193 32.012 10.3134 31.9299 10.4546 31.7846L16.1213 25.9512C16.4099 25.6541 16.403 25.1793 16.1059 24.8907C15.8088 24.6021 15.334 24.6089 15.0454 24.906L10.6667 29.4135V10.8453C10.6667 10.4311 10.3309 10.0953 9.91667 10.0953C9.50245 10.0953 9.16667 10.4311 9.16667 10.8453V29.4135L4.78796 24.906ZM18.9546 11.3679C18.666 11.665 18.1912 11.6719 17.8941 11.3833C17.597 11.0946 17.5901 10.6198 17.8787 10.3227L23.5454 4.48937C23.6866 4.34399 23.8807 4.26196 24.0833 4.26196C24.286 4.26196 24.4801 4.34399 24.6213 4.48937L30.288 10.3227C30.5766 10.6198 30.5697 11.0946 30.2726 11.3833C29.9755 11.6719 29.5007 11.665 29.212 11.3679L24.8333 6.86039V25.4286C24.8333 25.8428 24.4975 26.1786 24.0833 26.1786C23.6691 26.1786 23.3333 25.8428 23.3333 25.4286V6.86039L18.9546 11.3679Z" fill="white"/>
</g>
</svg>
