<svg width="13" height="12" viewBox="0 0 13 12" fill="none" xmlns="http://www.w3.org/2000/svg">
<g id="info 1">
<g id="Group">
<path id="Vector" d="M8.99239 10.705L8.82472 11.3904C8.32171 11.5889 7.91991 11.7401 7.62071 11.8439C7.32118 11.9482 6.97315 12 6.57662 12C5.96768 12 5.49403 11.8508 5.15622 11.5545C4.81841 11.2571 4.64945 10.8801 4.64945 10.4228C4.64945 10.2458 4.66171 10.0637 4.6872 9.87816C4.7129 9.69243 4.75377 9.48324 4.8097 9.24943L5.43832 7.02446C5.49425 6.8114 5.54178 6.60953 5.57986 6.41863C5.61847 6.22892 5.63707 6.05437 5.63707 5.89724C5.63707 5.61309 5.57824 5.41434 5.46112 5.3026C5.344 5.19118 5.12051 5.13461 4.78872 5.13461C4.62622 5.13461 4.45919 5.16063 4.28894 5.21097C4.11794 5.26151 3.97178 5.31034 3.84907 5.35573L4.01717 4.66978C4.42897 4.50211 4.8226 4.35853 5.19913 4.23937C5.57566 4.11988 5.93143 4.06008 6.26795 4.06008C6.8727 4.06008 7.33936 4.20624 7.66706 4.49856C7.99476 4.79109 8.15856 5.17031 8.15856 5.63761C8.15856 5.7343 8.1478 5.90466 8.12468 6.14815C8.1021 6.39218 8.06004 6.61577 7.99874 6.81915L7.37281 9.0352C7.32151 9.21319 7.27537 9.41667 7.23525 9.64564C7.19384 9.87311 7.17406 10.0469 7.17406 10.1635C7.17406 10.4577 7.23966 10.6586 7.37119 10.7654C7.50369 10.8722 7.73191 10.9254 8.05607 10.9254C8.20825 10.9254 8.3814 10.8984 8.57381 10.8454C8.76567 10.7923 8.9056 10.7458 8.99239 10.705ZM9.15113 1.40136C9.15113 1.78746 9.00562 2.11721 8.71319 2.38834C8.42152 2.66044 8.07005 2.7966 7.65889 2.7966C7.24644 2.7966 6.89411 2.66044 6.5991 2.38834C6.30463 2.1171 6.15707 1.78746 6.15707 1.40136C6.15707 1.01602 6.30463 0.685733 6.5991 0.41116C6.89357 0.137017 7.24654 0 7.65889 0C8.06994 0 8.42152 0.13734 8.71319 0.41116C9.00583 0.685733 9.15113 1.01612 9.15113 1.40136Z" fill="white"/>
</g>
</g>
</svg>
