<svg width="17" height="17" viewBox="0 0 17 17" fill="none" xmlns="http://www.w3.org/2000/svg">
<g id="Img">
<path id="Vector" d="M16.3957 0.265085C16.7113 0.483835 16.8769 0.86196 16.8175 1.24009L14.8175 14.2401C14.7707 14.5432 14.5863 14.8088 14.3175 14.9588C14.0488 15.1088 13.7269 15.1276 13.4425 15.0088L9.70504 13.4557L7.56441 15.7713C7.28629 16.0745 6.84879 16.1745 6.46441 16.0245C6.08004 15.8745 5.83004 15.5026 5.83004 15.0901V12.4776C5.83004 12.3526 5.87691 12.2338 5.96129 12.1432L11.1988 6.42759C11.38 6.23071 11.3738 5.92759 11.1863 5.74009C10.9988 5.55259 10.6957 5.54009 10.4988 5.71821L4.14254 11.3651L1.38316 9.98384C1.05191 9.81821 0.839412 9.48696 0.830037 9.11821C0.820662 8.74946 1.01441 8.40571 1.33316 8.22134L15.3332 0.221335C15.6675 0.0307103 16.08 0.0494603 16.3957 0.265085Z" fill="white"/>
</g>
</svg>
