<svg width="17" height="17" viewBox="0 0 17 17" fill="none" xmlns="http://www.w3.org/2000/svg">
<g id="Img">
<path id="Vector" d="M15.0153 4.83121C15.0255 4.97334 15.0255 5.11549 15.0255 5.25762C15.0255 9.59262 11.726 14.5876 5.69553 14.5876C3.83766 14.5876 2.11178 14.0495 0.660004 13.1155C0.923972 13.1459 1.17775 13.1561 1.45188 13.1561C2.98485 13.1561 4.39603 12.6383 5.52294 11.7551C4.08132 11.7246 2.87319 10.7805 2.45694 9.48096C2.66 9.5114 2.86303 9.53171 3.07625 9.53171C3.37066 9.53171 3.6651 9.49109 3.93919 9.42006C2.43666 9.11546 1.30972 7.79568 1.30972 6.20178V6.16118C1.74625 6.40484 2.25391 6.55712 2.79194 6.5774C1.90869 5.98856 1.33003 4.9835 1.33003 3.84643C1.33003 3.23731 1.49244 2.67893 1.77672 2.19162C3.39094 4.18146 5.81735 5.48093 8.53813 5.62309C8.48738 5.37943 8.45691 5.12565 8.45691 4.87184C8.45691 3.06471 9.91885 1.59265 11.7361 1.59265C12.6803 1.59265 13.533 1.98859 14.132 2.62818C14.8731 2.48606 15.5838 2.21193 16.2133 1.83631C15.9696 2.59775 15.4518 3.23734 14.7716 3.6434C15.4315 3.57237 16.0711 3.38959 16.6599 3.13581C16.2133 3.78553 15.6549 4.36418 15.0153 4.83121Z" fill="white"/>
</g>
</svg>
